<svg width="300" height="300" viewBox="0 0 300 300" fill="none" xmlns="http://www.w3.org/2000/svg">
<path d="M0 0H200C255.228 0 300 44.7715 300 100V300H100C44.7715 300 0 255.228 0 200V0Z" fill="#EFE9D5"/>
<path d="M133.95 229.083L113.283 201.808C118.808 202.258 125.242 202.775 132.242 203C139.658 203.333 147.692 203.192 155.867 202.642C159.925 202.283 164.033 201.833 168.092 201.108C172.133 200.467 176.275 199.475 179.675 198.525C186.858 196.542 193.675 194.067 199.258 191.025C204.867 188.092 209.033 184.475 211.442 181.692C212.642 180.258 213.508 179.108 213.992 178.242L214.767 176.967C215.183 176.275 215.233 175.408 214.792 174.675C214.125 173.592 212.692 173.217 211.558 173.842L211.392 173.925C211.392 173.925 209.742 174.842 206.892 176.075C205.425 176.658 203.725 177.367 201.642 177.933C199.642 178.6 197.242 179.1 194.658 179.65C192.05 180.175 189.158 180.6 186.075 181.067L176.175 182.317C172.508 182.775 169.292 183.2 165.792 183.4C162.325 183.65 158.708 183.675 155.083 183.617C147.817 183.65 140.417 183.092 133.4 182.658C126.292 182.142 119.65 181.658 113.942 181.225C113.608 181.225 113.333 181.192 113.025 181.183L114.008 180.225L139.242 155.258L135.458 141.925L79.9583 188.308L128.317 241.592L133.958 229.067L133.95 229.083Z" fill="#27445D"/>
<path d="M171 70.8582L191.667 98.1249C186.133 97.6749 179.708 97.1582 172.7 96.9332C165.283 96.5999 157.242 96.7416 149.075 97.2916C144.992 97.6499 140.908 98.0999 136.825 98.8249C132.792 99.4582 128.658 100.45 125.258 101.408C118.075 103.383 111.258 105.858 105.675 108.908C100.058 111.825 95.8917 115.45 93.4833 118.242C92.275 119.658 91.4 120.825 90.925 121.683C90.425 122.517 90.15 122.95 90.15 122.95C89.7333 123.642 89.6917 124.508 90.125 125.242C90.7917 126.325 92.225 126.7 93.3583 126.075L93.525 125.992C93.525 125.992 95.1917 125.075 98.025 123.842C99.5 123.258 101.192 122.55 103.275 121.983C105.292 121.3 107.675 120.817 110.275 120.258C112.875 119.725 115.758 119.3 118.833 118.825C121.983 118.442 125.308 118.025 128.75 117.575C132.417 117.133 135.625 116.708 139.133 116.508C142.592 116.258 146.217 116.233 149.842 116.292C157.108 116.258 164.508 116.817 171.533 117.25C178.642 117.783 185.283 118.267 190.983 118.7C191.317 118.7 191.6 118.733 191.9 118.742L190.917 119.692L165.692 144.658L169.475 157.992L225 111.617L176.633 58.3332L170.983 70.8582L171 70.8582Z" fill="#27445D"/>
</svg>
